HIERARCHY
ROOT Hips
{
	OFFSET 0.000000 100.481300 0.000000
	CHANNELS 6 Xposition Yposition Zposition Xrotation Yrotation Zrotation
	JOINT Spine
	{
		OFFSET -0.279200 12.230698 -2.892100
		CHANNELS 3 Xrotation Yrotation Zrotation
		JOINT Spine1
		{
			OFFSET -0.325700 14.269203 -3.374200
			CHANNELS 3 Xrotation Yrotation Zrotation
			JOINT Spine2
			{
				OFFSET -0.372300 16.307602 -0.352600
				CHANNELS 3 Xrotation Yrotation Zrotation
				JOINT Neck
				{
					OFFSET -0.418800 17.814194 8.416900
					CHANNELS 3 Xrotation Yrotation Zrotation
					JOINT Head
					{
						OFFSET 0.000000 7.031097 3.806800
						CHANNELS 3 Xrotation Yrotation Zrotation
						JOINT HeadTop_End
						{
							OFFSET 0.000000 24.646606 12.978600
							CHANNELS 3 Xrotation Yrotation Zrotation
							End Site
							{
								OFFSET 0.000000 27.854965 0.000000
							}
						}
					}
				}
				JOINT LeftShoulder
				{
					OFFSET 16.952999 14.495407 -7.737500
					CHANNELS 3 Xrotation Yrotation Zrotation
					JOINT LeftArm
					{
						OFFSET 9.308998 -2.777710 0.208600
						CHANNELS 3 Xrotation Yrotation Zrotation
						JOINT LeftForeArm
						{
							OFFSET 29.972298 0.000000 0.000000
							CHANNELS 3 Xrotation Yrotation Zrotation
							JOINT LeftHand
							{
								OFFSET 26.026505 0.000000 0.000000
								CHANNELS 3 Xrotation Yrotation Zrotation
								JOINT LeftHandThumb1
								{
									OFFSET 12.240501 -7.147949 9.207150
									CHANNELS 3 Xrotation Yrotation Zrotation
									JOINT LeftHandThumb2
									{
										OFFSET 4.138618 -2.389435 2.389433
										CHANNELS 3 Xrotation Yrotation Zrotation
										JOINT LeftHandThumb3
										{
											OFFSET 2.726913 -1.574387 1.574386
											CHANNELS 3 Xrotation Yrotation Zrotation
											JOINT LeftHandThumb4
											{
												OFFSET 3.941010 -2.275345 2.275342
												CHANNELS 3 Xrotation Yrotation Zrotation
												End Site
												{
													OFFSET -0.005798 5.087799 0.009903
												}
											}
										}
									}
								}
								JOINT LeftHandIndex1
								{
									OFFSET 24.424698 -1.985611 5.953459
									CHANNELS 3 Xrotation Yrotation Zrotation
									JOINT LeftHandIndex2
									{
										OFFSET 6.426697 0.000000 0.000000
										CHANNELS 3 Xrotation Yrotation Zrotation
										JOINT LeftHandIndex3
										{
											OFFSET 5.337898 0.000000 0.000000
											CHANNELS 3 Xrotation Yrotation Zrotation
											JOINT LeftHandIndex4
											{
												OFFSET 4.409401 0.000000 0.000000
												CHANNELS 3 Xrotation Yrotation Zrotation
												End Site
												{
													OFFSET 0.000000 4.409363 0.014373
												}
											}
										}
									}
								}
								JOINT LeftHandMiddle1
								{
									OFFSET 23.810104 0.000000 0.000000
									CHANNELS 3 Xrotation Yrotation Zrotation
									JOINT LeftHandMiddle2
									{
										OFFSET 7.176498 0.000000 0.000000
										CHANNELS 3 Xrotation Yrotation Zrotation
										JOINT LeftHandMiddle3
										{
											OFFSET 6.774902 0.000000 0.000000
											CHANNELS 3 Xrotation Yrotation Zrotation
											JOINT LeftHandMiddle4
											{
												OFFSET 5.403328 0.000000 0.000000
												CHANNELS 3 Xrotation Yrotation Zrotation
												End Site
												{
													OFFSET -0.027702 5.403244 0.017414
												}
											}
										}
									}
								}
								JOINT LeftHandRing1
								{
									OFFSET 22.908401 -0.839279 -6.020567
									CHANNELS 3 Xrotation Yrotation Zrotation
									JOINT LeftHandRing2
									{
										OFFSET 6.337502 0.000000 0.000000
										CHANNELS 3 Xrotation Yrotation Zrotation
										JOINT LeftHandRing3
										{
											OFFSET 5.779297 0.000000 0.000000
											CHANNELS 3 Xrotation Yrotation Zrotation
											JOINT LeftHandRing4
											{
												OFFSET 4.965698 0.000000 0.000000
												CHANNELS 3 Xrotation Yrotation Zrotation
												End Site
												{
													OFFSET 0.000000 4.965668 0.016186
												}
											}
										}
									}
								}
								JOINT LeftHandPinky1
								{
									OFFSET 20.037003 -1.530319 -10.950146
									CHANNELS 3 Xrotation Yrotation Zrotation
									JOINT LeftHandPinky2
									{
										OFFSET 5.254700 0.000000 0.000000
										CHANNELS 3 Xrotation Yrotation Zrotation
										JOINT LeftHandPinky3
										{
											OFFSET 4.810204 0.000000 0.000000
											CHANNELS 3 Xrotation Yrotation Zrotation
											JOINT LeftHandPinky4
											{
												OFFSET 3.647202 0.000000 0.000000
												CHANNELS 3 Xrotation Yrotation Zrotation
												End Site
												{
													OFFSET 0.000000 3.647186 0.011889
												}
											}
										}
									}
								}
							}
						}
					}
				}
				JOINT RightShoulder
				{
					OFFSET -15.141001 14.495407 -7.737500
					CHANNELS 3 Xrotation Yrotation Zrotation
					JOINT RightArm
					{
						OFFSET -9.308998 -2.777710 0.208500
						CHANNELS 3 Xrotation Yrotation Zrotation
						JOINT RightForeArm
						{
							OFFSET -29.972300 0.000000 0.000000
							CHANNELS 3 Xrotation Yrotation Zrotation
							JOINT RightHand
							{
								OFFSET -26.026505 0.000000 0.000000
								CHANNELS 3 Xrotation Yrotation Zrotation
								JOINT RightHandThumb1
								{
									OFFSET -12.240601 -7.148026 9.207092
									CHANNELS 3 Xrotation Yrotation Zrotation
									JOINT RightHandThumb2
									{
										OFFSET -4.138618 -2.389435 2.389433
										CHANNELS 3 Xrotation Yrotation Zrotation
										JOINT RightHandThumb3
										{
											OFFSET -2.726974 -1.574417 1.574421
											CHANNELS 3 Xrotation Yrotation Zrotation
											JOINT RightHandThumb4
											{
												OFFSET -3.941010 -2.275345 2.275343
												CHANNELS 3 Xrotation Yrotation Zrotation
												End Site
												{
													OFFSET 0.005814 5.087799 0.009927
												}
											}
										}
									}
								}
								JOINT RightHandIndex1
								{
									OFFSET -24.424698 -1.985657 5.953444
									CHANNELS 3 Xrotation Yrotation Zrotation
									JOINT RightHandIndex2
									{
										OFFSET -6.426697 0.000000 0.000000
										CHANNELS 3 Xrotation Yrotation Zrotation
										JOINT RightHandIndex3
										{
											OFFSET -5.337898 0.000000 0.000000
											CHANNELS 3 Xrotation Yrotation Zrotation
											JOINT RightHandIndex4
											{
												OFFSET -4.409401 0.000000 0.000000
												CHANNELS 3 Xrotation Yrotation Zrotation
												End Site
												{
													OFFSET 0.000000 4.409363 0.014408
												}
											}
										}
									}
								}
								JOINT RightHandMiddle1
								{
									OFFSET -23.810097 0.000000 0.000000
									CHANNELS 3 Xrotation Yrotation Zrotation
									JOINT RightHandMiddle2
									{
										OFFSET -7.176498 0.000000 0.000000
										CHANNELS 3 Xrotation Yrotation Zrotation
										JOINT RightHandMiddle3
										{
											OFFSET -6.774902 0.000000 0.000000
											CHANNELS 3 Xrotation Yrotation Zrotation
											JOINT RightHandMiddle4
											{
												OFFSET -5.403328 0.000000 0.000000
												CHANNELS 3 Xrotation Yrotation Zrotation
												End Site
												{
													OFFSET 0.027702 5.403244 0.017457
												}
											}
										}
									}
								}
								JOINT RightHandRing1
								{
									OFFSET -22.908302 -0.839325 -6.020576
									CHANNELS 3 Xrotation Yrotation Zrotation
									JOINT RightHandRing2
									{
										OFFSET -6.337502 0.000000 0.000000
										CHANNELS 3 Xrotation Yrotation Zrotation
										JOINT RightHandRing3
										{
											OFFSET -5.779297 0.000000 0.000000
											CHANNELS 3 Xrotation Yrotation Zrotation
											JOINT RightHandRing4
											{
												OFFSET -4.965698 0.000000 0.000000
												CHANNELS 3 Xrotation Yrotation Zrotation
												End Site
												{
													OFFSET 0.000000 4.965668 0.016226
												}
											}
										}
									}
								}
								JOINT RightHandPinky1
								{
									OFFSET -20.037003 -1.530334 -10.950259
									CHANNELS 3 Xrotation Yrotation Zrotation
									JOINT RightHandPinky2
									{
										OFFSET -5.254700 0.000000 0.000000
										CHANNELS 3 Xrotation Yrotation Zrotation
										JOINT RightHandPinky3
										{
											OFFSET -4.810204 0.000000 0.000000
											CHANNELS 3 Xrotation Yrotation Zrotation
											JOINT RightHandPinky4
											{
												OFFSET -3.647202 0.000000 0.000000
												CHANNELS 3 Xrotation Yrotation Zrotation
												End Site
												{
													OFFSET 0.000000 3.647186 0.011917
												}
											}
										}
									}
								}
							}
						}
					}
				}
			}
		}
	}
	JOINT LeftUpLeg
	{
		OFFSET 15.427100 -6.655098 0.678600
		CHANNELS 3 Xrotation Yrotation Zrotation
		JOINT LeftLeg
		{
			OFFSET 4.081073 -39.591068 13.024000
			CHANNELS 3 Xrotation Yrotation Zrotation
			JOINT LeftFoot
			{
				OFFSET -4.081074 -37.707932 -15.979700
				CHANNELS 3 Xrotation Yrotation Zrotation
				JOINT LeftToeBase
				{
					OFFSET 5.346399 -15.068900 20.645000
					CHANNELS 3 Xrotation Yrotation Zrotation
					JOINT LeftToe_End
					{
						OFFSET 2.754700 0.931300 11.300900
						CHANNELS 3 Xrotation Yrotation Zrotation
						End Site
						{
							OFFSET 0.000000 11.669021 0.000000
						}
					}
				}
			}
		}
	}
	JOINT RightUpLeg
	{
		OFFSET -15.569500 -6.655098 0.678600
		CHANNELS 3 Xrotation Yrotation Zrotation
		JOINT RightLeg
		{
			OFFSET -4.081825 -39.591045 13.023800
			CHANNELS 3 Xrotation Yrotation Zrotation
			JOINT RightFoot
			{
				OFFSET 4.081824 -37.707954 -15.979600
				CHANNELS 3 Xrotation Yrotation Zrotation
				JOINT RightToeBase
				{
					OFFSET -5.346400 -15.068900 20.645000
					CHANNELS 3 Xrotation Yrotation Zrotation
					JOINT RightToe_End
					{
						OFFSET -2.754700 0.931300 11.300900
						CHANNELS 3 Xrotation Yrotation Zrotation
						End Site
						{
							OFFSET 0.000000 11.669021 0.000000
						}
					}
				}
			}
		}
	}
}
MOTION
Frames: 5
Frame Time: 0.033333
3.272769 87.473366 -5.521502 7.462810 2.473356 -1.585457 1.985107 -1.775176 4.511146 3.762583 -1.875195 0.245903 3.762583 -1.875194 0.245902 10.955534 -1.201421 6.334499 -10.599150 -3.389130 5.280818 -0.000003 -0.000001 -0.000000 -2.925414 -6.787132 -9.283557 21.833676 -13.016720 -62.178579 82.092242 -68.283778 94.999926 -6.056360 -25.152440 -0.206309 -2.558098 2.718394 14.668781 7.710651 30.066462 -2.318022 -5.587803 -11.562908 -2.842190 0.000003 -0.000001 0.000002 5.624333 10.976532 -100.626021 5.218046 6.009377 -89.906975 5.097984 5.075353 -90.682584 0.000002 0.000001 -0.000001 4.889437 11.402637 -91.251976 5.185455 6.024138 -90.884847 2.199004 4.334415 -53.200948 -0.000000 -0.000002 -0.000001 5.857921 10.663692 -92.659514 7.539991 4.678184 -110.882937 2.283463 3.368442 -48.148152 0.000001 0.000002 0.000000 0.647378 11.817729 -100.879681 3.901017 5.343640 -81.270440 4.090418 5.571532 -73.969815 0.000001 0.000002 -0.000001 -1.417215 3.693862 16.071840 8.178305 23.645592 52.333862 91.241827 43.665727 -102.875858 -1.031139 17.495301 -24.695343 1.038402 1.051830 -15.338662 17.048489 -33.839814 5.588442 -5.904766 20.380226 2.630590 0.000002 0.000000 -0.000001 6.124795 -2.415158 92.003324 5.566540 -5.999245 93.738575 1.665190 -4.112530 62.075013 0.000002 0.000000 -0.000003 0.934141 -9.997850 83.957723 4.896197 -6.088279 87.925169 -1.980912 -4.341854 67.042002 0.000001 0.000000 -0.000002 -2.732241 -19.122436 89.551355 5.935495 -5.000374 92.540232 -2.830329 -3.600795 68.507583 -0.000001 -0.000001 -0.000000 -8.780150 -24.682545 98.492052 3.263892 -5.105163 73.816914 0.193312 -3.269604 81.670204 -0.000001 0.000001 0.000003 -23.419916 2.906464 10.304180 69.549610 -5.262537 2.379017 1.816160 -0.740793 -10.863445 2.993771 15.752306 -16.665061 -0.000000 0.000001 -0.000003 -10.527908 -3.867759 16.131332 39.326809 -3.952716 -8.815522 -18.898059 -1.957882 -5.912033 -24.462807 -6.624163 1.434512 0.000000 -0.000000 0.000000 
3.156582 92.170815 2.199682 8.677125 1.525325 -0.431012 1.736402 -0.704969 4.624698 3.397913 -0.513113 0.195323 3.397909 -0.513114 0.195320 11.017080 -1.852794 6.559617 -9.125094 -4.370376 4.969560 0.000001 -0.000001 -0.000000 -2.675645 -6.718702 -7.687730 26.220251 -13.958978 -59.967668 88.705921 -67.799538 103.719742 -5.350760 -25.828137 2.537786 -2.403844 2.949759 14.537117 6.931139 30.510694 -1.852378 -5.576035 -11.548984 -2.913585 0.000000 -0.000001 0.000001 5.071235 10.521615 -99.052086 5.208395 6.009339 -89.800766 5.088622 5.075123 -90.576546 -0.000001 0.000000 0.000001 4.944384 11.557479 -90.528994 5.300353 6.022816 -92.180711 2.295096 4.399822 -54.492970 0.000000 -0.000000 0.000001 6.156133 10.941739 -92.983053 7.664990 4.614710 -112.370033 2.385898 3.441406 -49.632963 -0.000001 -0.000000 0.000000 0.849361 11.980805 -100.920765 3.985233 5.364100 -82.229563 4.175470 5.588840 -74.929395 0.000000 0.000002 0.000000 -1.579740 5.593530 16.422462 6.229139 28.443266 52.086312 92.394278 42.878251 -105.359787 -1.857624 15.105064 -22.507261 3.710336 1.222848 -15.143306 16.650082 -34.173499 5.453008 -6.122108 19.885836 8.291022 0.000001 0.000000 -0.000001 6.939914 -2.742484 89.550467 5.500229 -6.003144 93.006816 1.613145 -4.067142 61.345528 -0.000002 -0.000003 0.000001 0.978873 -9.756203 80.895497 4.859817 -6.086126 87.520111 -2.010300 -4.291851 66.642087 0.000000 0.000001 -0.000003 -3.339742 -18.751530 86.924177 5.920388 -5.002626 92.373008 -2.830326 -3.600795 68.507583 0.000002 -0.000002 -0.000001 -9.357714 -23.271213 92.780989 3.207091 -5.082201 73.134913 0.160844 -3.210343 80.991161 -0.000000 -0.000003 -0.000001 -24.754801 2.600384 8.427094 55.981747 -4.684419 1.140675 -1.153558 -0.515857 -8.614958 0.095723 14.263053 -10.898258 0.000002 0.000001 0.000001 -3.849960 -5.916620 12.873389 30.215777 0.603054 -7.493237 -10.388018 -0.908252 -6.494312 -24.519964 -3.323658 0.037246 -0.000000 0.000000 -0.000000 
3.039075 95.739426 9.240415 10.257523 0.944290 1.774147 1.565213 0.247966 3.643228 3.161787 0.480246 0.201629 3.161784 0.480246 0.201628 7.470362 -2.893001 6.239137 -8.168261 -5.581170 4.486294 -0.000001 -0.000000 0.000000 -2.581699 -6.697813 -7.083938 28.645286 -14.205925 -58.018680 95.312667 -68.298654 111.726138 -5.327426 -23.870642 2.420504 -2.540695 3.291590 14.273180 6.087505 30.984607 -1.339042 -5.593006 -11.569023 -2.810789 0.000000 -0.000001 0.000001 4.519928 10.012227 -97.488622 5.243891 6.009362 -90.191910 5.123182 5.075829 -90.967096 0.000001 -0.000001 -0.000002 5.036978 11.719830 -90.122447 5.616706 6.005701 -95.754075 2.567540 4.568721 -58.057298 0.000000 0.000000 0.000000 6.460892 11.164620 -93.779986 7.868864 4.502233 -114.839631 2.560241 3.556704 -52.100833 -0.000001 -0.000002 0.000000 1.108051 12.182134 -101.346490 4.066253 5.382376 -83.148892 4.257252 5.604092 -75.849182 0.000000 -0.000001 -0.000001 -1.681525 7.033903 16.360929 5.459819 32.403507 51.174339 93.573974 42.604196 -108.266995 -2.544685 12.658407 -20.644445 5.357642 1.743015 -14.972803 17.507575 -33.454847 5.745547 -6.199654 19.666399 10.731687 0.000002 0.000003 -0.000003 7.185868 -2.857402 88.752680 5.426948 -6.006438 92.198927 1.556515 -4.016377 60.541683 -0.000001 0.000002 -0.000000 0.940851 -9.681418 79.940821 4.832903 -6.084362 87.220081 -2.031859 -4.254645 66.345801 0.000000 -0.000001 0.000001 -3.468682 -18.667792 86.356745 5.921358 -5.002486 92.383663 -2.830325 -3.600797 68.507583 0.000000 -0.000001 -0.000000 -9.581878 -22.931933 91.386743 3.190621 -5.075377 72.936230 0.151503 -3.193003 80.793372 -0.000000 0.000002 -0.000000 -25.774455 2.863108 5.027237 40.418078 -3.939930 0.851134 -0.699859 -0.303923 -8.329831 -5.020106 13.109392 -6.690916 -0.000000 -0.000001 0.000000 0.370926 -7.502712 8.979980 23.424962 2.801346 -6.383761 -1.826358 0.718134 -6.447695 -32.248417 -0.196404 -0.451152 0.000000 0.000000 0.000000 
2.660819 98.723785 15.535415 12.234339 0.649859 4.270961 1.349797 1.084850 1.958071 2.763376 1.681798 0.115292 2.763377 1.681800 0.115291 3.860241 -4.292373 6.547483 -7.594324 -7.135469 3.671232 0.000001 0.000000 0.000001 -2.570103 -6.797314 -7.001941 29.411515 -14.072740 -56.199596 100.619116 -67.886432 118.040709 -5.328254 -22.497672 2.048848 0.260636 3.216568 14.566594 8.513244 29.610847 -2.813353 -5.556101 -11.543127 -3.122419 -0.000003 -0.000001 0.000001 3.371615 9.046375 -88.401977 5.396931 6.006619 -91.878045 5.272151 5.076102 -92.650690 -0.000002 -0.000001 0.000001 5.183398 12.722714 -84.847274 6.505592 5.849993 -105.944847 3.396055 4.953874 -68.229212 0.000001 0.000001 0.000000 6.901437 12.075397 -90.527348 8.344924 4.191365 -120.871836 3.005918 3.806039 -58.133611 0.000001 -0.000002 -0.000001 1.600761 12.658976 -99.009179 4.410386 5.445165 -87.020093 4.603917 5.653929 -79.721907 0.000001 0.000002 -0.000001 -1.670715 7.672355 15.750105 5.133251 34.618684 50.720585 96.745613 45.053588 -113.028081 -3.082759 12.133764 -17.463756 5.441213 1.783693 -14.789197 16.269186 -34.492339 5.324363 -6.193633 19.684972 10.527203 0.000001 0.000000 -0.000002 7.049818 -2.777797 90.232577 5.405051 -6.007246 91.957808 1.539733 -4.001077 60.301889 0.000002 0.000001 -0.000001 1.074297 -9.788581 81.331215 4.854162 -6.085763 87.457027 -2.014861 -4.284008 66.579653 -0.000002 0.000000 0.000001 -3.198379 -18.841270 87.542179 5.925651 -5.001851 92.431161 -2.830327 -3.600794 68.507583 0.000001 -0.000002 -0.000001 -9.179076 -23.377782 93.224712 3.218330 -5.086794 73.269789 0.167209 -3.222096 81.125490 -0.000003 -0.000001 -0.000001 -26.819008 3.740746 1.635883 23.266870 -4.179294 0.648068 4.174948 -0.466884 -8.190724 -3.993714 11.548874 -9.326472 -0.000000 0.000000 0.000000 2.920068 -6.753711 5.105190 17.538440 0.748512 -6.884507 9.139916 0.506908 -1.935953 -43.464045 1.988150 -0.880947 -0.000000 0.000000 0.000000 
2.051724 100.239975 20.348103 13.151123 0.385068 7.385719 1.270901 1.429284 -0.619446 2.515565 2.628848 -0.101704 2.515568 2.628852 -0.101701 1.659969 -5.345482 8.187411 -8.193299 -7.977194 2.345891 -0.000000 0.000001 -0.000000 -2.515809 -7.095939 -6.625015 29.673822 -13.686506 -54.549521 103.733860 -66.360267 122.101898 -4.909598 -22.678117 3.465784 1.858967 3.200027 14.708727 9.476534 29.055184 -3.397333 -5.538354 -11.530762 -3.271976 -0.000002 0.000001 0.000000 2.975821 8.600681 -84.120091 5.640488 5.992984 -94.565588 5.509440 5.067530 -95.334339 0.000002 0.000003 0.000001 5.032536 13.014856 -82.130375 6.943093 5.711294 -111.123018 3.840715 5.092131 -73.409050 -0.000001 0.000003 0.000001 7.086865 12.580525 -88.776395 8.562843 4.023412 -123.789023 3.230689 3.909661 -61.056857 0.000001 0.000001 -0.000001 1.938224 13.000467 -98.064099 4.654698 5.475390 -89.744943 4.849547 5.674988 -82.447733 -0.000000 -0.000001 0.000003 -1.757877 8.214447 16.249454 4.445380 35.145186 50.421727 99.639237 46.508636 -116.454698 -3.255701 13.461642 -15.315921 4.984991 1.795091 -14.683585 15.406697 -35.213255 5.035717 -6.149151 19.813626 9.100204 -0.000002 0.000002 -0.000000 6.815439 -2.672984 91.711334 5.375098 -6.008176 91.627486 1.516889 -3.980004 59.973507 0.000000 -0.000001 -0.000001 1.121302 -9.906484 82.904795 4.869336 -6.086712 87.626218 -2.002609 -4.305021 66.747108 0.000002 0.000002 -0.000000 -2.905397 -19.020572 88.809897 5.934836 -5.000455 92.533033 -2.830325 -3.600793 68.507583 -0.000005 -0.000001 -0.000001 -8.997530 -23.935416 95.514595 3.236244 -5.094082 73.485186 0.177434 -3.240833 81.339917 0.000003 -0.000003 -0.000002 -27.664141 5.193479 -1.538308 8.648506 -6.196101 -0.578734 9.099378 -0.980706 -8.700504 -1.925025 9.736348 -11.032277 -0.000000 0.000000 -0.000000 3.287313 -4.612905 0.091414 17.352852 -5.214405 -8.431226 19.036055 -0.050336 3.923257 -49.097493 -1.784967 1.698133 -0.000001 0.000000 0.000000 
